/home/minht/3dpredictsim_tutorial/predsim_tutorial/Results/Case_12/GRF.mot
version=1
nRows=27
nColumns=19
inDegrees=yes
endheader 
time	r_ground_force_vx	r_ground_force_vy	r_ground_force_vz	r_ground_force_px	r_ground_force_py	r_ground_force_pz	l_ground_force_vx	l_ground_force_vy	l_ground_force_vz	l_ground_force_px	l_ground_force_py	l_ground_force_pz	r_ground_torque_x	r_ground_torque_y	r_ground_torque_z	l_ground_torque_x	l_ground_torque_y	l_ground_torque_z	
          0.00000000	        -79.62932638	         36.75563591	         -6.66819350	         -5.80861869	          0.00000000	          1.99105879	         77.19147534	        687.05080494	        -41.56072347	          0.00844361	          0.00000000	         -0.00718853	          0.00000000	        182.93047223	          0.00000000	          0.00000000	         11.96186615	          0.00000000	
          0.00785437	       -101.05472642	         51.10295594	        -10.69271582	         -4.02844687	          0.00000000	          1.35473733	         75.69307363	        662.11007262	        -34.62835635	          0.01359127	          0.00000000	         -0.01023312	          0.00000000	        166.66410544	          0.00000000	          0.00000000	         15.58984134	          0.00000000	
          0.01570875	       -132.98044573	         76.23719880	        -17.14927908	         -2.59995291	          0.00000000	          0.85608900	         75.82628854	        637.32479904	        -26.71289510	          0.02293348	          0.00000000	         -0.01564293	          0.00000000	        146.83493248	          0.00000000	          0.00000000	         21.25644652	          0.00000000	
          0.02356312	       -176.48943703	        121.85893232	        -26.91425999	         -1.56625244	          0.00000000	          0.50429825	         77.17159155	        613.62064924	        -17.94791759	          0.04053482	          0.00000000	         -0.02564687	          0.00000000	        121.91159849	          0.00000000	          0.00000000	         29.54556024	          0.00000000	
          0.03141749	       -214.78932983	        198.02803375	        -37.47459353	         -0.93194916	          0.00000000	          0.29342611	         78.66108170	        593.22527552	         -8.99188920	          0.07122755	          0.00000000	         -0.04271420	          0.00000000	         91.39145099	          0.00000000	          0.00000000	         38.21373591	          0.00000000	
          0.03927187	        -69.82062728	        330.51387170	        -18.47385183	         -0.54412066	          0.00000000	          0.16774968	         79.77246667	        577.82933927	         -0.90973717	          0.12862369	          0.00000000	         -0.07220538	          0.00000000	         17.85087348	          0.00000000	          0.00000000	         18.38884676	          0.00000000	
          0.04712624	        -80.80057103	        578.82683653	          0.39593091	         -0.30279175	          0.00000000	          0.09150195	         82.60439255	        562.86908502	          6.24598283	          0.24343789	          0.00000000	         -0.12832529	          0.00000000	          6.00575205	          0.00000000	          0.00000000	         19.04553643	          0.00000000	
          0.05498061	       -164.32896742	        917.65989284	         -0.20127912	         -0.18529174	          0.00000000	          0.05493446	         86.43083794	        545.79784838	         14.13211744	          0.42638539	          0.00000000	         -0.20094505	          0.00000000	         10.60316232	          0.00000000	          0.00000000	         34.75003458	          0.00000000	
          0.06283499	       -234.82896100	       1190.73634915	          6.43434198	         -0.13835946	          0.00000000	          0.04033009	         88.19348197	        528.42195092	         22.83550376	          0.58818372	          0.00000000	         -0.26364147	          0.00000000	         12.83953446	          0.00000000	          0.00000000	         50.38530819	          0.00000000	
          0.07068936	       -250.93902454	       1289.71694262	         13.05733310	         -0.12388248	          0.00000000	          0.03563069	         86.73824475	        511.90448442	         31.47337206	          0.66283453	          0.00000000	         -0.29360920	          0.00000000	         13.97540957	          0.00000000	          0.00000000	         57.63293367	          0.00000000	
          0.07854373	       -232.38906724	       1241.99653891	         13.51816599	         -0.12491996	          0.00000000	          0.03561478	         83.73109547	        496.49416850	         38.22270070	          0.65890559	          0.00000000	         -0.29092844	          0.00000000	         15.10376044	          0.00000000	          0.00000000	         58.13087151	          0.00000000	
          0.08639811	       -206.58001574	       1138.49881243	         10.03030058	         -0.13224260	          0.00000000	          0.03753063	         82.00187898	        481.30382502	         41.57077671	          0.62354852	          0.00000000	         -0.27406006	          0.00000000	         16.20088336	          0.00000000	          0.00000000	         55.41746962	          0.00000000	
          0.09425248	       -181.30346550	       1030.22996092	          5.92843454	         -0.14191455	          0.00000000	          0.04023137	         82.48568329	        467.02358820	         41.85563149	          0.58181385	          0.00000000	         -0.25444363	          0.00000000	         16.96023186	          0.00000000	          0.00000000	         51.24402621	          0.00000000	
          0.10210685	       -159.17060548	        938.24833201	          2.57956071	         -0.15176391	          0.00000000	          0.04307722	         83.62376920	        454.55424052	         40.50867649	          0.54453211	          0.00000000	         -0.23702026	          0.00000000	         17.32858910	          0.00000000	          0.00000000	         46.78797734	          0.00000000	
          0.10996123	       -140.19865629	        867.38023872	          0.38209701	         -0.15973420	          0.00000000	          0.04544354	         83.81269375	        442.04588676	         38.69808064	          0.51774387	          0.00000000	         -0.22434591	          0.00000000	         17.35700639	          0.00000000	          0.00000000	         42.69395479	          0.00000000	
          0.11781560	       -123.89731838	        814.35857106	         -0.86816846	         -0.16485431	          0.00000000	          0.04703680	         83.31779831	        428.16071733	         36.81224879	          0.50204301	          0.00000000	         -0.21656871	          0.00000000	         17.16532634	          0.00000000	          0.00000000	         39.26918248	          0.00000000	
          0.12566997	       -109.65769435	        774.61376388	         -1.39019988	         -0.16753913	          0.00000000	          0.04798034	         82.47718309	        413.80977108	         35.15048833	          0.49432498	          0.00000000	         -0.21235310	          0.00000000	         16.87230713	          0.00000000	          0.00000000	         36.46197873	          0.00000000	
          0.13352435	        -96.86076069	        744.55611164	         -1.38092839	         -0.16841166	          0.00000000	          0.04846350	         81.35206885	        399.80853100	         33.92901381	          0.49205761	          0.00000000	         -0.21056711	          0.00000000	         16.58360984	          0.00000000	          0.00000000	         34.15115356	          0.00000000	
          0.14137872	        -85.33703463	        721.04905752	         -1.01620836	         -0.16801294	          0.00000000	          0.04864517	         80.02600812	        386.32240831	         33.07366323	          0.49351169	          0.00000000	         -0.21040542	          0.00000000	         16.33870353	          0.00000000	          0.00000000	         32.20931565	          0.00000000	
          0.14923309	        -75.09927678	        702.70377850	         -0.16595230	         -0.16640104	          0.00000000	          0.04852581	         78.20650014	        372.99601660	         32.33672416	          0.49862896	          0.00000000	         -0.21174475	          0.00000000	         16.03066439	          0.00000000	          0.00000000	         30.41734556	          0.00000000	
          0.15708747	        -65.94764138	        688.43766716	          0.85407520	         -0.16372335	          0.00000000	          0.04813318	         75.90457003	        359.72035790	         31.65119200	          0.50721121	          0.00000000	         -0.21443597	          0.00000000	         15.69326013	          0.00000000	          0.00000000	         28.76396230	          0.00000000	
          0.16494184	        -57.60417027	        677.20058345	          1.88064889	         -0.16017032	          0.00000000	          0.04751390	         73.28727597	        346.41333751	         30.97593554	          0.51903240	          0.00000000	         -0.21831809	          0.00000000	         15.34787771	          0.00000000	          0.00000000	         27.23128241	          0.00000000	
          0.17279621	        -50.02083416	        668.34160325	          2.87851089	         -0.15582626	          0.00000000	          0.04668659	         70.47450779	        332.92025497	         30.34407801	          0.53432192	          0.00000000	         -0.22338246	          0.00000000	         15.02361642	          0.00000000	          0.00000000	         25.82856257	          0.00000000	
          0.18065059	        -43.85938354	        661.69822932	          3.70783662	         -0.15087398	          0.00000000	          0.04570735	         67.49079381	        319.51000399	         29.87924457	          0.55280030	          0.00000000	         -0.22957333	          0.00000000	         14.80616154	          0.00000000	          0.00000000	         24.76390563	          0.00000000	
          0.18850496	        -38.60309665	        656.99591422	          4.54303672	         -0.14576307	          0.00000000	          0.04470740	         64.19766487	        306.92074925	         29.62116016	          0.57294433	          0.00000000	         -0.23645813	          0.00000000	         14.62905646	          0.00000000	          0.00000000	         23.88267818	          0.00000000	
          0.19635933	        -33.97924076	        653.87253043	          5.14494379	         -0.14032005	          0.00000000	          0.04363205	         60.65206647	        294.53943206	         29.43355444	          0.59597631	          0.00000000	         -0.24437655	          0.00000000	         14.49249468	          0.00000000	          0.00000000	         23.15601537	          0.00000000	
          0.20421371	        -29.99592612	        652.61573452	          5.71849044	         -0.13447673	          0.00000000	          0.04245236	         56.94931342	        282.27075176	         29.29800155	          0.62274179	          0.00000000	         -0.25362261	          0.00000000	         14.36416317	          0.00000000	          0.00000000	         22.59418877	          0.00000000	
